# xmcd CD database file generated by Grip 3.2.0
# 
# Track frame offsets:
#       150
#       24838
#       44709
#       63363
#       88850
#       111233
#       145825
#       167833
# 
# Disc length: 2554 seconds
# 
# Revision: 3
# Processed by: cddbd v1.5.2PL0 Copyright (c) Steve Scherf et al.
# Submitted via: Grip 3.2.0
# 
DISCID=6b09f808
DTITLE=Marla Glen - In Concert
DYEAR=1998
DGENRE=Blues
TTITLE0=Ain't That a Shame
TTITLE1=Break Free
TTITLE2=What About Our Kids
TTITLE3=You Got Me
TTITLE4=Also Love You
TTITLE5=Believer
TTITLE6=Love and Respect
TTITLE7=Break Free (2)
EXTD=
EXTT0=
EXTT1=
EXTT2=
EXTT3=
EXTT4=
EXTT5=
EXTT6=
EXTT7=
PLAYORDER=
